Coordinates
version=1
nRows=18
nColumns=32
inDegrees=yes

Units are S.I. units (second, meters, Newtons, ...)
If the header above contains a line with 'inDegrees', this indicates whether rotational values are in degrees (yes) or radians (no).

endheader
time	pelvis_tilt	pelvis_list	pelvis_rotation	pelvis_tx	pelvis_ty	pelvis_tz	hip_flexion_r	hip_adduction_r	hip_rotation_r	knee_angle_r	knee_adduction_r	med_cond_adduction_r	lat_cond_adduction_r	patella_r_constrained_knee_angle	ankle_angle_r	subtalar_angle_r	mtp_angle_r	hip_flexion_l	hip_adduction_l	hip_rotation_l	knee_angle_l	knee_adduction_l	med_cond_adduction_l	lat_cond_adduction_l	patella_l_constrained_knee_angle	ankle_angle_l	subtalar_angle_l	mtp_angle_l	lumbar_extension	lumbar_bending	lumbar_rotation
      0.89000000	      1.42233429	      9.56533139	     -5.70178989	      0.61364480	      0.94144040	      0.18233063	     24.73196984	    -17.54006382	     -0.02314542	    -66.72258444	      6.00854081	     -0.00000000	     -0.00000000	     -1.16452878	     -3.59305985	     -0.73161446	     -0.00000000	     -2.15453323	     10.07497123	    -22.90644982	     -4.54839390	      1.92432360	      0.00000000	      0.00000000	     -0.07938445	     -0.99123609	      6.66772471	      0.00000000	      0.29601795	    -11.24036327	      8.47982308
      0.89500000	      1.32665887	      9.54940629	     -5.43409585	      0.61977430	      0.94167739	      0.18175686	     25.28949448	    -17.35767484	      0.40430994	    -65.77435083	      6.64824375	      0.00000000	      0.00000000	     -1.14797899	     -3.02053227	     -0.74560894	      0.00000000	     -2.68529866	     10.11665523	    -22.66201926	     -4.17893271	      1.99928501	     -0.00000000	     -0.00000000	     -0.07293614	     -1.08419448	      6.79148859	      0.00000000	      0.31892696	    -11.16400889	      8.38264193
      0.90000000	      1.48386578	      9.10601332	     -4.95497659	      0.62598911	      0.94274473	      0.18070713	     25.19656161	    -16.81812857	      0.16940224	    -64.45762499	      7.03218162	      0.00000000	      0.00000000	     -1.12499778	     -2.58961096	     -0.86330288	      0.00000000	     -3.66062359	      9.75338714	    -21.87577951	     -3.58518885	      2.13416944	      0.00000000	      0.00000000	     -0.06257335	     -1.28248635	      6.43379251	     -0.00000000	     -0.12473665	    -10.52366387	      8.01906072
      0.90500000	      1.39726170	      9.14029221	     -4.85508927	      0.63208436	      0.94278042	      0.18059481	     25.77170641	    -16.58414025	      0.72876451	    -63.37001383	      7.55954943	     -0.00000000	     -0.00000000	     -1.10601539	     -2.18930666	     -0.93859696	      0.00000000	     -4.05990341	      9.70123618	    -22.17480584	     -3.54710045	      2.31236444	      0.00000000	      0.00000000	     -0.06190858	     -1.16210057	      7.09847540	      0.00000000	     -0.04451474	    -10.58411314	      8.01027228
      0.91000000	      1.53091559	      8.77360742	     -4.39719484	      0.63830283	      0.94360214	      0.17962892	     25.70278644	    -16.12579554	      0.46882940	    -61.95661252	      7.84300527	      0.00000000	      0.00000000	     -1.08134688	     -1.84077113	     -1.15352137	     -0.00000000	     -4.92161612	      9.35922973	    -21.58953430	     -3.11419052	      2.44592875	     -0.00000000	     -0.00000000	     -0.05435288	     -1.29861774	      6.96793823	     -0.00000000	     -0.40735569	    -10.06198520	      7.68215149
      0.91500000	      1.59554158	      8.54749211	     -4.00706252	      0.64446984	      0.94411768	      0.17880200	     25.78248995	    -15.78702053	      0.39387231	    -60.53734470	      8.15265847	     -0.00000000	     -0.00000000	     -1.05657599	     -1.56413877	     -1.35608789	     -0.00000000	     -5.62463924	      9.14024307	    -21.19228983	     -2.80347445	      2.54852331	     -0.00000000	     -0.00000000	     -0.04892986	     -1.33707451	      7.04505064	      0.00000000	     -0.62343549	     -9.84906880	      7.17603357
      0.92000000	      1.51250120	      8.54771622	     -3.72090215	      0.65069663	      0.94406891	      0.17826545	     26.16875736	    -15.64516858	      0.53534108	    -59.23973566	      8.45909147	      0.00000000	      0.00000000	     -1.03392844	     -1.21991763	     -1.46808877	      0.00000000	     -6.04932101	      9.09026735	    -21.15836292	     -2.73143251	      2.66863565	     -0.00000000	     -0.00000000	     -0.04767249	     -1.23748847	      7.45761975	      0.00000000	     -0.59118695	     -9.80669124	      7.05444980
      0.92500000	      1.59604328	      8.28333582	     -3.29914128	      0.65690412	      0.94452117	      0.17737772	     26.13517719	    -15.29694565	      0.27143127	    -57.66887587	      8.62001654	     -0.00000000	     -0.00000000	     -1.00651176	     -1.05144817	     -1.74441498	     -0.00000000	     -6.73353379	      8.77926431	    -20.81819278	     -2.52971586	      2.80772144	     -0.00000000	     -0.00000000	     -0.04415187	     -1.22204850	      7.61124077	      0.00000000	     -0.84938773	     -9.46536638	      6.63415544
      0.93000000	      1.59996173	      8.17486750	     -2.85780812	      0.66316927	      0.94467574	      0.17639369	     26.22968824	    -15.14822888	      0.07202123	    -56.12989714	      8.78186110	      0.00000000	      0.00000000	     -0.97965151	     -0.84623382	     -1.93090664	      0.00000000	     -7.33139179	      8.68950919	    -20.37217796	     -2.26672555	      2.84456099	     -0.00000000	     -0.00000000	     -0.03956182	     -1.24965067	      7.65388144	     -0.00000000	     -0.97000228	     -9.28832823	      6.25578790
      0.93500000	      1.66156823	      7.97084570	     -2.39972796	      0.66942030	      0.94493163	      0.17536801	     26.17181252	    -14.90706482	     -0.24657515	    -54.46017660	      8.87775539	     -0.00000000	     -0.00000000	     -0.95050939	     -0.72406324	     -2.21540647	      0.00000000	     -7.96647677	      8.45615945	    -19.98552152	     -2.08397553	      2.92326962	      0.00000000	      0.00000000	     -0.03637223	     -1.22033370	      7.77050581	     -0.00000000	     -1.18243410	     -8.99044669	      5.81879624
      0.94000000	      1.69769029	      7.83128048	     -1.92518608	      0.67568846	      0.94504575	      0.17428526	     26.13796184	    -14.76139635	     -0.58377425	    -52.77890039	      8.95194981	     -0.00000000	     -0.00000000	     -0.92116559	     -0.60687735	     -2.51608844	      0.00000000	     -8.57444985	      8.30623896	    -19.53789631	     -1.87356935	      2.96324965	     -0.00000000	     -0.00000000	     -0.03269995	     -1.20443375	      7.82851746	     -0.00000000	     -1.35392957	     -8.75056638	      5.39482741
      0.94500000	      1.70357709	      7.75630036	     -1.44818758	      0.68192671	      0.94498983	      0.17315531	     26.14701946	    -14.70740152	     -0.93353564	    -51.08973479	      8.99863793	     -0.00000000	     -0.00000000	     -0.89168409	     -0.54606142	     -2.81888933	      0.00000000	     -9.12373798	      8.23812257	    -19.10152551	     -1.69383393	      2.95840911	      0.00000000	      0.00000000	     -0.02956298	     -1.17109511	      7.90402255	     -0.00000000	     -1.47985593	     -8.59734482	      4.94596018
      0.95000000	      1.71075851	      7.66483757	     -0.96110134	      0.68819921	      0.94487643	      0.17199019	     26.11192783	    -14.64487283	     -1.33282961	    -49.35039639	      9.01069556	     -0.00000000	     -0.00000000	     -0.86132690	     -0.44330469	     -3.17198567	     -0.00000000	     -9.67732540	      8.14108041	    -18.65527073	     -1.51214584	      2.96113149	      0.00000000	      0.00000000	     -0.02639192	     -1.13459261	      7.96755638	     -0.00000000	     -1.61565959	     -8.38913062	      4.51886214
      0.95500000	      1.74342455	      7.58576606	     -0.41019191	      0.69445953	      0.94479365	      0.17059768	     25.99553952	    -14.67353962	     -1.86559708	    -47.53919003	      9.00243681	     -0.00000000	     -0.00000000	     -0.82971539	     -0.50619986	     -3.47082949	     -0.00000000	    -10.27832410	      8.09346151	    -18.03701869	     -1.27103636	      2.89754909	      0.00000000	      0.00000000	     -0.02218377	     -1.13846318	      7.89974375	      0.00000000	     -1.78637648	     -8.17423455	      4.02206211
      0.96000000	      1.76642754	      7.48628949	      0.17405831	      0.70070231	      0.94464617	      0.16911023	     25.83373769	    -14.69356660	     -2.43220903	    -45.66797076	      8.98603310	      0.00000000	      0.00000000	     -0.79705645	     -0.52296431	     -3.91472546	      0.00000000	    -10.86685003	      8.03095546	    -17.35898917	     -1.01496412	      2.80109392	     -0.00000000	     -0.00000000	     -0.01771447	     -1.15024797	      7.73554166	     -0.00000000	     -1.96117493	     -7.84166949	      3.60594070
      0.96500000	      1.73468895	      7.51216306	      0.66519285	      0.70692580	      0.94423501	      0.16776646	     25.81516140	    -14.82442102	     -2.93460864	    -43.86181999	      8.92967460	      0.00000000	     -0.00000000	     -0.76553317	     -0.57005527	     -4.28219384	     -0.00000000	    -11.29887679	      8.07277237	    -17.03696485	     -0.97368174	      2.70764613	     -0.00000000	     -0.00000000	     -0.01699395	     -1.03280966	      7.92782413	     -0.00000000	     -2.02722344	     -7.78566075	      3.07713581
      0.97000000	      1.55408320	      7.74172143	      1.03458794	      0.71319872	      0.94330019	      0.16679880	     26.10863561	    -15.12039206	     -3.20763562	    -42.26927635	      8.88365446	      0.00000000	      0.00000000	     -0.73773804	     -0.46384040	     -4.51806192	      0.00000000	    -11.56934242	      8.33581952	    -16.80300858	     -0.94238337	      2.60665086	      0.00000000	      0.00000000	     -0.01644769	     -0.86827645	      8.24284900	      0.00000000	     -1.88281564	     -8.01471856	      2.75334838
      0.97500000	      1.51674803	      7.76504908	      1.54961187	      0.71943568	      0.94276277	      0.16543200	     26.03933867	    -15.27148180	     -3.83513518	    -40.42393387	      8.75128246	     -0.00000000	     -0.00000000	     -0.70553074	     -0.48484743	     -4.84894397	      0.00000000	    -12.05148658	      8.38164391	    -16.28075527	     -0.78568971	      2.49557857	     -0.00000000	     -0.00000000	     -0.01371287	     -0.80105659	      8.26201992	      0.00000000	     -1.96300540	     -7.85818638	      2.37182425
